<svg fill="none" xmlns="http://www.w3.org/2000/svg" viewBox="0.2 0.78 300.5 177.77">
<path fill-rule="evenodd" clip-rule="evenodd" d="M219.59 155.766C225.366 166.558 235.519 174.769 248.218 177.484C271.506 182.463 294.537 167.073 299.66 143.11C304.783 119.147 290.058 95.6849 266.771 90.7061C263.224 89.9478 259.683 89.662 256.21 89.8071C258.437 69.9295 245.704 51.328 226.278 47.1749C218.48 45.5076 210.714 46.4062 203.817 49.3117C198.177 26.2897 180.107 7.41156 155.665 2.18584C121.418 -5.13584 87.6302 17.1153 80.1966 51.8851C79.8608 53.4559 79.5845 55.0253 79.3662 56.5909C76.8011 55.6385 74.1378 54.8601 71.3864 54.2719C39.7885 47.5164 8.53815 68.3982 1.58672 100.913C-5.36472 133.427 14.6152 165.262 46.213 172.017C65.3947 176.118 84.4483 170.034 98.0157 157.346C102.426 167.418 111.431 175.285 122.971 177.752C137.576 180.874 152.011 174.445 159.82 162.664C164.739 168.946 171.794 173.6 180.191 175.395C196.577 178.898 212.748 170.378 219.59 155.766Z" fill="#F3F8FF"/>
</svg>